<svg id="undraw_quite_town_mg2q" xmlns="http://www.w3.org/2000/svg" width="888.244" height="478.033" viewBox="0 0 888.244 478.033">
  <path id="Path_41" data-name="Path 41" d="M347.878,687.984h-2a94,94,0,0,0-188,0h-2a96,96,0,1,1,192,0Z" transform="translate(-155.878 -210.984)" fill="#3f3d56"/>
  <path id="Path_42" data-name="Path 42" d="M1043.88,687.984h-2a94,94,0,0,0-188,0h-2a96,96,0,0,1,192,0Z" transform="translate(-155.878 -210.984)" fill="#3f3d56"/>
  <path id="Path_43" data-name="Path 43" d="M808.878,458.984h-2c0-94.841-77.159-172-172-172s-172,77.159-172,172h-2c0-95.944,78.056-174,174-174S808.878,363.04,808.878,458.984Z" transform="translate(-155.878 -210.984)" fill="#3f3d56"/>
  <circle id="Ellipse_13" data-name="Ellipse 13" cx="39.5" cy="39.5" r="39.5" transform="translate(106)" fill="#ff6584"/>
  <path id="Path_44" data-name="Path 44" d="M153.891,311.384l67.861-80.817H355.171L436.7,309.983l-1.647,1.059h.588V476.227H153.984V311.042Z" fill="#3f3d56"/>
  <rect id="Rectangle_84" data-name="Rectangle 84" width="15.383" height="53.249" transform="translate(210.102 276.248) rotate(180)" fill="#3f3d56"/>
  <path id="Path_45" data-name="Path 45" d="M220.694,229.508l83.651,98.073V476.227H153.984v-167.3Z" fill="#29e298"/>
  <rect id="Rectangle_85" data-name="Rectangle 85" width="30.708" height="31.398" transform="translate(254.306 347.044)" fill="#3f3d56"/>
  <rect id="Rectangle_86" data-name="Rectangle 86" width="30.708" height="31.398" transform="translate(254.306 389.767)" fill="#3f3d56"/>
  <rect id="Rectangle_87" data-name="Rectangle 87" width="30.708" height="31.398" transform="translate(254.306 347.044)" fill="#fff"/>
  <rect id="Rectangle_88" data-name="Rectangle 88" width="30.708" height="31.398" transform="translate(254.306 389.767)" fill="#fff"/>
  <rect id="Rectangle_89" data-name="Rectangle 89" width="30.708" height="31.398" transform="translate(211.838 347.044)" fill="#3f3d56"/>
  <rect id="Rectangle_90" data-name="Rectangle 90" width="30.708" height="31.398" transform="translate(211.838 389.767)" fill="#3f3d56"/>
  <rect id="Rectangle_91" data-name="Rectangle 91" width="30.708" height="31.398" transform="translate(211.838 347.044)" fill="#fff"/>
  <rect id="Rectangle_92" data-name="Rectangle 92" width="30.708" height="31.398" transform="translate(211.838 389.767)" fill="#fff"/>
  <rect id="Rectangle_93" data-name="Rectangle 93" width="30.708" height="31.398" transform="translate(169.369 347.044)" fill="#3f3d56"/>
  <rect id="Rectangle_94" data-name="Rectangle 94" width="30.708" height="31.398" transform="translate(169.369 389.767)" fill="#3f3d56"/>
  <rect id="Rectangle_95" data-name="Rectangle 95" width="30.708" height="31.398" transform="translate(169.369 347.044)" fill="#fff"/>
  <rect id="Rectangle_96" data-name="Rectangle 96" width="30.708" height="31.398" transform="translate(169.369 389.767)" fill="#fff"/>
  <rect id="Rectangle_97" data-name="Rectangle 97" width="14" height="35" transform="translate(485 40)" fill="#29e298"/>
  <rect id="Rectangle_98" data-name="Rectangle 98" width="119" height="405" transform="translate(379 72)" fill="#29e298"/>
  <rect id="Rectangle_99" data-name="Rectangle 99" width="48" height="405" transform="translate(498 72)" fill="#3f3d56"/>
  <rect id="Rectangle_100" data-name="Rectangle 100" width="18" height="18" transform="translate(400.5 107)" fill="#fff"/>
  <rect id="Rectangle_101" data-name="Rectangle 101" width="18" height="18" transform="translate(429.5 107)" fill="#fff"/>
  <rect id="Rectangle_102" data-name="Rectangle 102" width="18" height="18" transform="translate(458.5 107)" fill="#fff"/>
  <rect id="Rectangle_103" data-name="Rectangle 103" width="18" height="18" transform="translate(401 148)" fill="#fff"/>
  <rect id="Rectangle_104" data-name="Rectangle 104" width="18" height="18" transform="translate(430 148)" fill="#fff"/>
  <rect id="Rectangle_105" data-name="Rectangle 105" width="18" height="18" transform="translate(459 148)" fill="#fff"/>
  <rect id="Rectangle_106" data-name="Rectangle 106" width="18" height="18" transform="translate(401.5 189)" fill="#fff"/>
  <rect id="Rectangle_107" data-name="Rectangle 107" width="18" height="18" transform="translate(430.5 189)" fill="#fff"/>
  <rect id="Rectangle_108" data-name="Rectangle 108" width="18" height="18" transform="translate(459.5 189)" fill="#fff"/>
  <rect id="Rectangle_109" data-name="Rectangle 109" width="18" height="18" transform="translate(402 230)" fill="#fff"/>
  <rect id="Rectangle_110" data-name="Rectangle 110" width="18" height="18" transform="translate(431 230)" fill="#fff"/>
  <rect id="Rectangle_111" data-name="Rectangle 111" width="18" height="18" transform="translate(460 230)" fill="#fff"/>
  <rect id="Rectangle_112" data-name="Rectangle 112" width="18" height="18" transform="translate(402.5 271)" fill="#fff"/>
  <rect id="Rectangle_113" data-name="Rectangle 113" width="18" height="18" transform="translate(431.5 271)" fill="#fff"/>
  <rect id="Rectangle_114" data-name="Rectangle 114" width="18" height="18" transform="translate(460.5 271)" fill="#fff"/>
  <rect id="Rectangle_115" data-name="Rectangle 115" width="18" height="18" transform="translate(403 312)" fill="#fff"/>
  <rect id="Rectangle_116" data-name="Rectangle 116" width="18" height="18" transform="translate(432 312)" fill="#fff"/>
  <rect id="Rectangle_117" data-name="Rectangle 117" width="18" height="18" transform="translate(461 312)" fill="#fff"/>
  <rect id="Rectangle_118" data-name="Rectangle 118" width="18" height="18" transform="translate(403.5 353)" fill="#fff"/>
  <rect id="Rectangle_119" data-name="Rectangle 119" width="18" height="18" transform="translate(432.5 353)" fill="#fff"/>
  <rect id="Rectangle_120" data-name="Rectangle 120" width="18" height="18" transform="translate(461.5 353)" fill="#fff"/>
  <rect id="Rectangle_121" data-name="Rectangle 121" width="18" height="18" transform="translate(404 394)" fill="#fff"/>
  <rect id="Rectangle_122" data-name="Rectangle 122" width="18" height="18" transform="translate(433 394)" fill="#fff"/>
  <rect id="Rectangle_123" data-name="Rectangle 123" width="18" height="34" transform="translate(433 442)" fill="#fff"/>
  <rect id="Rectangle_124" data-name="Rectangle 124" width="18" height="18" transform="translate(462 394)" fill="#fff"/>
  <rect id="Rectangle_125" data-name="Rectangle 125" width="8" height="34" transform="translate(498 40)" fill="#3f3d56"/>
  <rect id="Rectangle_126" data-name="Rectangle 126" width="14" height="20.744" transform="translate(635 218)" fill="#29e298"/>
  <rect id="Rectangle_127" data-name="Rectangle 127" width="119" height="240.034" transform="translate(529 236.966)" fill="#29e298"/>
  <rect id="Rectangle_128" data-name="Rectangle 128" width="48" height="240.034" transform="translate(648 236.966)" fill="#3f3d56"/>
  <rect id="Rectangle_129" data-name="Rectangle 129" width="18" height="18" transform="translate(552.5 271)" fill="#fff"/>
  <rect id="Rectangle_130" data-name="Rectangle 130" width="18" height="18" transform="translate(581.5 271)" fill="#fff"/>
  <rect id="Rectangle_131" data-name="Rectangle 131" width="18" height="18" transform="translate(610.5 271)" fill="#fff"/>
  <rect id="Rectangle_132" data-name="Rectangle 132" width="18" height="18" transform="translate(553 312)" fill="#fff"/>
  <rect id="Rectangle_133" data-name="Rectangle 133" width="18" height="18" transform="translate(582 312)" fill="#fff"/>
  <rect id="Rectangle_134" data-name="Rectangle 134" width="18" height="18" transform="translate(611 312)" fill="#fff"/>
  <rect id="Rectangle_135" data-name="Rectangle 135" width="18" height="18" transform="translate(553.5 353)" fill="#fff"/>
  <rect id="Rectangle_136" data-name="Rectangle 136" width="18" height="18" transform="translate(582.5 353)" fill="#fff"/>
  <rect id="Rectangle_137" data-name="Rectangle 137" width="18" height="18" transform="translate(611.5 353)" fill="#fff"/>
  <rect id="Rectangle_138" data-name="Rectangle 138" width="18" height="18" transform="translate(554 394)" fill="#fff"/>
  <rect id="Rectangle_139" data-name="Rectangle 139" width="18" height="18" transform="translate(583 394)" fill="#fff"/>
  <rect id="Rectangle_140" data-name="Rectangle 140" width="18" height="34" transform="translate(583 442)" fill="#fff"/>
  <rect id="Rectangle_141" data-name="Rectangle 141" width="18" height="18" transform="translate(612 394)" fill="#fff"/>
  <rect id="Rectangle_142" data-name="Rectangle 142" width="8" height="20.151" transform="translate(648 218)" fill="#3f3d56"/>
  <rect id="Rectangle_143" data-name="Rectangle 143" width="888" height="2.241" transform="translate(0.244 475.792)" fill="#3f3d56"/>
  <circle id="Ellipse_14" data-name="Ellipse 14" cx="26.041" cy="26.041" r="26.041" transform="translate(706.619 378)" fill="#29e298"/>
  <path id="Path_46" data-name="Path 46" d="M907.908,597.631a26.043,26.043,0,0,1-43.391,27.561,26.043,26.043,0,1,0,43.391-27.561Z" transform="translate(-155.878 -210.984)" opacity="0.2"/>
  <path id="Path_47" data-name="Path 47" d="M732.731,404.041h.072l1.287,73.829h-2.718Z" fill="#3f3d56"/>
  <rect id="Rectangle_144" data-name="Rectangle 144" width="1.288" height="4.865" transform="translate(736.872 443.118) rotate(62.234)" fill="#3f3d56"/>
  <circle id="Ellipse_15" data-name="Ellipse 15" cx="39.599" cy="39.599" r="39.599" transform="translate(769.619 326)" fill="#29e298"/>
  <path id="Path_48" data-name="Path 48" d="M994.553,550.134a39.6,39.6,0,0,1-65.984,41.911,39.6,39.6,0,1,0,65.984-41.911Z" transform="translate(-155.878 -210.984)" opacity="0.2"/>
  <path id="Path_49" data-name="Path 49" d="M809.327,365.6h.109l1.958,112.271H807.26Z" fill="#3f3d56"/>
  <rect id="Rectangle_145" data-name="Rectangle 145" width="1.958" height="7.398" transform="translate(815.625 425.021) rotate(62.234)" fill="#3f3d56"/>
  <path id="Path_65" data-name="Path 65" d="M26.041,0A26.041,26.041,0,1,1,0,26.041,26.041,26.041,0,0,1,26.041,0Z" transform="translate(0.619 377)" fill="#29e298"/>
  <path id="Path_50" data-name="Path 50" d="M201.908,596.631a26.043,26.043,0,0,1-43.391,27.561,26.043,26.043,0,1,0,43.391-27.561Z" transform="translate(-155.878 -210.984)" opacity="0.2"/>
  <path id="Path_51" data-name="Path 51" d="M26.731,403.041H26.8L28.09,476.87H25.372Z" fill="#3f3d56"/>
  <rect id="Rectangle_146" data-name="Rectangle 146" width="1.288" height="4.865" transform="translate(30.872 442.117) rotate(62.234)" fill="#3f3d56"/>
  <path id="Path_52" data-name="Path 52" d="M762.291,248.319l9.206-7.363c-7.151-.789-10.09,3.111-11.292,6.2-5.587-2.32-11.669.72-11.669.72l18.419,6.687a13.938,13.938,0,0,0-4.663-6.243Z" transform="translate(-155.878 -210.984)" fill="#3f3d56"/>
  <path id="Path_53" data-name="Path 53" d="M300.291,285.319l9.206-7.363c-7.151-.789-10.09,3.111-11.293,6.2-5.587-2.32-11.669.72-11.669.72l18.419,6.687A13.938,13.938,0,0,0,300.291,285.319Z" transform="translate(-155.878 -210.984)" fill="#3f3d56"/>
  <path id="Path_54" data-name="Path 54" d="M902.291,323.319l9.206-7.363c-7.151-.789-10.09,3.111-11.292,6.2-5.587-2.32-11.669.72-11.669.72l18.419,6.687a13.938,13.938,0,0,0-4.663-6.243Z" transform="translate(-155.878 -210.984)" fill="#3f3d56"/>
  <path id="Path_55" data-name="Path 55" d="M376.291,265.319l9.206-7.363c-7.151-.789-10.09,3.111-11.293,6.2-5.587-2.32-11.669.72-11.669.72l18.419,6.687a13.938,13.938,0,0,0-4.663-6.243Z" transform="translate(-155.878 -210.984)" fill="#3f3d56"/>
  <path id="Path_56" data-name="Path 56" d="M393.291,345.319l9.206-7.363c-7.151-.789-10.09,3.111-11.293,6.2-5.587-2.32-11.669.72-11.669.72l18.419,6.687a13.938,13.938,0,0,0-4.663-6.243Z" transform="translate(-155.878 -210.984)" fill="#3f3d56"/>
  <path id="Path_57" data-name="Path 57" d="M751.291,387.319l9.206-7.363c-7.151-.789-10.09,3.111-11.292,6.2-5.587-2.32-11.669.72-11.669.72l18.419,6.687a13.938,13.938,0,0,0-4.663-6.243Z" transform="translate(-155.878 -210.984)" fill="#3f3d56"/>
  <path id="Path_58" data-name="Path 58" d="M106,456H44v2h9.669v19h2V458H93.331v19h2V458H106Z" fill="#3f3d56"/>
  <path id="Path_59" data-name="Path 59" d="M324.878,674.984a13.919,13.919,0,0,0-6.971,1.871,14.982,14.982,0,0,0-25.029,11.129h45.949a13.991,13.991,0,0,0-13.949-13Z" transform="translate(-155.878 -210.984)" fill="#3f3d56"/>
  <path id="Path_60" data-name="Path 60" d="M561.878,674.984a13.919,13.919,0,0,0-6.971,1.871,14.982,14.982,0,0,0-25.029,11.129h45.95a13.99,13.99,0,0,0-13.95-13Z" transform="translate(-155.878 -210.984)" fill="#3f3d56"/>
  <path id="Path_61" data-name="Path 61" d="M716.878,674.984a13.919,13.919,0,0,0-6.971,1.871,14.982,14.982,0,0,0-25.029,11.129h45.95a13.99,13.99,0,0,0-13.95-13Z" transform="translate(-155.878 -210.984)" fill="#3f3d56"/>
  <path id="Path_62" data-name="Path 62" d="M920.878,674.984a13.919,13.919,0,0,0-6.971,1.871,14.982,14.982,0,0,0-25.029,11.129h45.95a13.99,13.99,0,0,0-13.95-13Z" transform="translate(-155.878 -210.984)" fill="#3f3d56"/>
  <path id="Path_63" data-name="Path 63" d="M1018.88,674.984a13.919,13.919,0,0,0-6.971,1.871,14.982,14.982,0,0,0-25.031,11.129h45.95a13.99,13.99,0,0,0-13.948-13Z" transform="translate(-155.878 -210.984)" fill="#3f3d56"/>
  <path id="Path_64" data-name="Path 64" d="M129,407H113v16h7.417v53.912h2V423H129Z" fill="#3f3d56"/>
  <rect id="Rectangle_147" data-name="Rectangle 147" width="62" height="2" transform="translate(44.122 450.016)" fill="#3f3d56"/>
  <rect id="Rectangle_148" data-name="Rectangle 148" width="62" height="2" transform="translate(44.122 445.016)" fill="#3f3d56"/>
  <rect id="Rectangle_149" data-name="Rectangle 149" width="62" height="2" transform="translate(44.122 440.016)" fill="#3f3d56"/>
</svg>
